<mxfile host="app.diagrams.net" modified="2021-01-11T02:20:55.943Z" agent="5.0 (X11; Linux x86_64) AppleWebKit/537.36 (KHTML, like Gecko) Chrome/77.0.3865.90 Safari/537.36" etag="J87w3j7fDB6mi7ZT4Cti" version="14.1.8" type="github">
  <diagram id="FTcakZhrtYrVJjoPwRLY" name="Page-1">
    <mxGraphModel dx="3015" dy="752" grid="1" gridSize="10" guides="1" tooltips="1" connect="1" arrows="1" fold="1" page="1" pageScale="1" pageWidth="827" pageHeight="1169" math="0" shadow="0">
      <root>
        <mxCell id="0" />
        <mxCell id="1" parent="0" />
        <mxCell id="_leq9RoZB2ALMT0C9DXV-1" value="2021年电子信息与通信学院网上毁约办理流程图" style="rounded=1;whiteSpace=wrap;html=1;fillColor=#dae8fc;strokeColor=#6c8ebf;" parent="1" vertex="1">
          <mxGeometry x="-1530" y="170" width="540" height="60" as="geometry" />
        </mxCell>
        <mxCell id="_leq9RoZB2ALMT0C9DXV-2" style="edgeStyle=orthogonalEdgeStyle;rounded=0;orthogonalLoop=1;jettySize=auto;html=1;exitX=0.5;exitY=1;exitDx=0;exitDy=0;entryX=0.5;entryY=0;entryDx=0;entryDy=0;" parent="1" source="_leq9RoZB2ALMT0C9DXV-3" target="_leq9RoZB2ALMT0C9DXV-12" edge="1">
          <mxGeometry relative="1" as="geometry" />
        </mxCell>
        <mxCell id="_leq9RoZB2ALMT0C9DXV-3" value="本人提交一份400字以上的毁约说明" style="rounded=1;whiteSpace=wrap;html=1;" parent="1" vertex="1">
          <mxGeometry x="-1530" y="280" width="320" height="60" as="geometry" />
        </mxCell>
        <mxCell id="_leq9RoZB2ALMT0C9DXV-4" style="edgeStyle=orthogonalEdgeStyle;rounded=0;orthogonalLoop=1;jettySize=auto;html=1;exitX=0.5;exitY=1;exitDx=0;exitDy=0;" parent="1" source="_leq9RoZB2ALMT0C9DXV-5" target="_leq9RoZB2ALMT0C9DXV-7" edge="1">
          <mxGeometry relative="1" as="geometry" />
        </mxCell>
        <mxCell id="_leq9RoZB2ALMT0C9DXV-5" value="在就业信息网原签约界面上传原就业协议书图片" style="rounded=1;whiteSpace=wrap;html=1;" parent="1" vertex="1">
          <mxGeometry x="-1530" y="463" width="320" height="60" as="geometry" />
        </mxCell>
        <mxCell id="_leq9RoZB2ALMT0C9DXV-6" style="edgeStyle=orthogonalEdgeStyle;rounded=0;orthogonalLoop=1;jettySize=auto;html=1;exitX=0.5;exitY=1;exitDx=0;exitDy=0;" parent="1" source="_leq9RoZB2ALMT0C9DXV-7" target="_leq9RoZB2ALMT0C9DXV-9" edge="1">
          <mxGeometry relative="1" as="geometry" />
        </mxCell>
        <mxCell id="_leq9RoZB2ALMT0C9DXV-7" value="在个人中心-违约申请上传3个文件" style="rounded=1;whiteSpace=wrap;html=1;" parent="1" vertex="1">
          <mxGeometry x="-1530" y="560" width="320" height="60" as="geometry" />
        </mxCell>
        <mxCell id="_leq9RoZB2ALMT0C9DXV-8" style="edgeStyle=orthogonalEdgeStyle;rounded=0;orthogonalLoop=1;jettySize=auto;html=1;exitX=0.5;exitY=1;exitDx=0;exitDy=0;entryX=0.5;entryY=0;entryDx=0;entryDy=0;" parent="1" source="_leq9RoZB2ALMT0C9DXV-9" target="_leq9RoZB2ALMT0C9DXV-10" edge="1">
          <mxGeometry relative="1" as="geometry" />
        </mxCell>
        <mxCell id="_leq9RoZB2ALMT0C9DXV-9" value="院系辅导员审批+就业指导中心审核通过" style="rounded=1;whiteSpace=wrap;html=1;" parent="1" vertex="1">
          <mxGeometry x="-1530" y="660" width="320" height="60" as="geometry" />
        </mxCell>
        <mxCell id="_leq9RoZB2ALMT0C9DXV-10" value="解约完成，获取新的签约资格" style="rounded=1;whiteSpace=wrap;html=1;" parent="1" vertex="1">
          <mxGeometry x="-1530" y="760" width="320" height="60" as="geometry" />
        </mxCell>
        <mxCell id="_leq9RoZB2ALMT0C9DXV-11" style="edgeStyle=orthogonalEdgeStyle;rounded=0;orthogonalLoop=1;jettySize=auto;html=1;exitX=0.5;exitY=1;exitDx=0;exitDy=0;entryX=0.5;entryY=0;entryDx=0;entryDy=0;" parent="1" source="_leq9RoZB2ALMT0C9DXV-12" target="_leq9RoZB2ALMT0C9DXV-5" edge="1">
          <mxGeometry relative="1" as="geometry" />
        </mxCell>
        <mxCell id="_leq9RoZB2ALMT0C9DXV-12" value="由辅导员提交副书记审核，同意后获得原单位的解约函复印件(副书记签署意见+公章)" style="rounded=1;whiteSpace=wrap;html=1;" parent="1" vertex="1">
          <mxGeometry x="-1530" y="377" width="320" height="60" as="geometry" />
        </mxCell>
        <mxCell id="_leq9RoZB2ALMT0C9DXV-13" value="南一楼东411刘思辅导员处" style="rounded=1;whiteSpace=wrap;html=1;" parent="1" vertex="1">
          <mxGeometry x="-1150" y="280" width="170" height="60" as="geometry" />
        </mxCell>
        <mxCell id="_leq9RoZB2ALMT0C9DXV-14" value="南一楼东411" style="rounded=1;whiteSpace=wrap;html=1;" parent="1" vertex="1">
          <mxGeometry x="-1150" y="377" width="170" height="60" as="geometry" />
        </mxCell>
        <mxCell id="_leq9RoZB2ALMT0C9DXV-15" value="就业信息网：&lt;a href=&quot;http://career.hust.edu.cn/&quot;&gt;http://career.hust.edu.cn&lt;/a&gt;" style="rounded=1;whiteSpace=wrap;html=1;" parent="1" vertex="1">
          <mxGeometry x="-1150" y="463" width="170" height="60" as="geometry" />
        </mxCell>
        <mxCell id="_leq9RoZB2ALMT0C9DXV-16" value="&lt;span style=&quot;font-family: &amp;#34;helvetica&amp;#34;&quot;&gt;(原单位解约函复印件+原协议书+新单位接受函)&lt;/span&gt;" style="rounded=1;whiteSpace=wrap;html=1;" parent="1" vertex="1">
          <mxGeometry x="-1150" y="560" width="170" height="60" as="geometry" />
        </mxCell>
        <mxCell id="_leq9RoZB2ALMT0C9DXV-17" value="&lt;div style=&quot;text-align: left&quot;&gt;&lt;span&gt;&lt;font style=&quot;font-size: 14px&quot;&gt;注意：&lt;/font&gt;&lt;/span&gt;&lt;/div&gt;&lt;div style=&quot;text-align: left&quot;&gt;&lt;span&gt;&lt;font size=&quot;3&quot;&gt;1. 军工等单位毁约学院的办理流程与上面流程图一致&lt;/font&gt;&lt;/span&gt;&lt;/div&gt;&lt;div style=&quot;text-align: left&quot;&gt;&lt;span&gt;&lt;font size=&quot;3&quot;&gt;2. 毁约通道开放时间原则上毕业之前都可办理&lt;/font&gt;&lt;/span&gt;&lt;/div&gt;&lt;div style=&quot;text-align: left&quot;&gt;&lt;span&gt;&lt;font size=&quot;3&quot;&gt;3. 所有材料提交、审核均在工作日办理&lt;/font&gt;&lt;/span&gt;&lt;/div&gt;&lt;div style=&quot;text-align: left&quot;&gt;&lt;span&gt;&lt;font size=&quot;3&quot;&gt;4. 根据电信学院优秀毕业生评选细则，毁约同学取消毕业生评选资格，毁约只能毁约一次。&lt;/font&gt;&lt;/span&gt;&lt;/div&gt;" style="text;html=1;align=center;verticalAlign=middle;resizable=0;points=[];autosize=1;" parent="1" vertex="1">
          <mxGeometry x="-1570" y="890" width="660" height="80" as="geometry" />
        </mxCell>
      </root>
    </mxGraphModel>
  </diagram>
</mxfile>
